<?xml version="1.0" standalone="no"?><!DOCTYPE svg PUBLIC "-//W3C//DTD SVG 1.1//EN" "http://www.w3.org/Graphics/SVG/1.1/DTD/svg11.dtd"><svg t="1712581995577" class="icon" viewBox="0 0 1058 1024" version="1.1" xmlns="http://www.w3.org/2000/svg" p-id="20155" xmlns:xlink="http://www.w3.org/1999/xlink" width="16.53125" height="16"><path d="M149.777067 317.678933L185.856 281.6l23.210667-23.176533 23.176533 23.176533 166.2976 166.2976h46.3872v-46.353067L278.6304 235.246933l-23.210667-23.2448 23.210667-23.176533 36.0448-36.0448H149.777067z" fill="#A4CB3E" p-id="20156"></path><path d="M444.928 355.157333v-202.410666h-83.831467L301.806933 212.036267l143.121067 143.121066z m-295.150933 8.942934v83.831466h202.410666L209.066667 304.810667l-59.2896 59.2896z" fill="#A6CD3C" p-id="20157"></path><path d="M765.610667 212.036267l-23.210667 23.210666-166.331733 166.2976v46.353067h46.3872l166.331733-166.2976 23.210667-23.176533 23.176533 23.176533 36.0448 36.078933V152.7808h-164.898133l36.078933 36.0448z" fill="#92307F" p-id="20158"></path><path d="M393.9328 119.978667h83.797333v267.9808l32.768 32.802133 32.802134-32.802133V119.978667h83.831466L510.498133 3.345067z" fill="#F6AB46" p-id="20159"></path><path d="M668.842667 447.8976h202.376533v-83.797333L811.9296 304.810667z" fill="#A3248D" p-id="20160"></path><path d="M116.974933 546.304h267.9808l32.802134-32.802133-32.802134-32.802134H116.974933v-83.831466L0.341333 513.501867l116.6336 116.6336z" fill="#A6218E" p-id="20161"></path><path d="M576.068267 671.8464v202.410667h83.8656l59.255466-59.2896-143.121066-143.121067z m92.7744-92.7744l143.086933 143.121067 59.2896-59.2896v-83.831467h-202.376533z" fill="#FFA64C" p-id="20162"></path><path d="M576.068267 355.157333l143.121066-143.121066-59.255466-59.255467h-83.8656z" fill="#A3248D" p-id="20163"></path><path d="M871.185067 709.3248l-36.0448 36.078933-23.210667 23.176534-23.176533-23.176534-166.2976-166.331733h-46.3872v46.3872l166.331733 166.331733 23.210667 23.176534-23.210667 23.210666-36.078933 36.0448h164.864z" fill="#FFA648" p-id="20164"></path><path d="M904.021333 480.699733h-267.9808l-32.768 32.802134 32.768 32.802133h267.9808v83.831467l116.6336-116.6336-116.6336-116.6336z" fill="#2B30A5" p-id="20165"></path><path d="M209.066667 722.193067l143.086933-143.121067H149.777067v83.831467z" fill="#2F3597" p-id="20166"></path><path d="M255.419733 814.933333l23.176534-23.210666 166.2976-166.263467v-46.3872h-46.353067l-166.331733 166.331733-23.176534 23.176534-23.176533-23.176534-36.078933-36.078933v164.898133H314.709333l-36.078933-36.078933-23.210667-23.210667z m371.712 92.091734h-83.831466v-268.014934l-32.802134-32.802133-32.768 32.802133v268.014934H393.898667l116.6336 116.599466 116.599466-116.599466z" fill="#2F3291" p-id="20167"></path><path d="M444.928 671.8464l-143.121067 143.086933 59.2896 59.2896h83.831467z" fill="#2F3291" p-id="20168"></path></svg>