<?xml version="1.0" standalone="no"?><!DOCTYPE svg PUBLIC "-//W3C//DTD SVG 1.1//EN" "http://www.w3.org/Graphics/SVG/1.1/DTD/svg11.dtd"><svg t="1712580833007" class="icon" viewBox="0 0 1024 1024" version="1.1" xmlns="http://www.w3.org/2000/svg" p-id="12919" xmlns:xlink="http://www.w3.org/1999/xlink" width="16" height="16"><path d="M935.472707 375.358563a558.601789 558.601789 0 0 0-22.350897-114.654979l13.308167 4.436056c-35.659064-81.384561-90.086055-163.62221-153.555775-199.281274-8.701494-5.118526-35.147211 4.947908-26.616335-12.113844s-37.535856-8.189641-56.815637-4.777291c-26.275099 4.265438-30.028685-29.175597-75.071713-35.829681-25.592629-3.582968-32.246713 18.426693-44.701792 13.308167C546.123506 17.061753 548.853386-1.194323 512 17.061753c-18.426693 9.042729 11.601992-26.104482-49.137848-4.606673l-5.118526-12.45508c-108.512748 41.630677-139.053286 76.266035-169.593824 79.337151-6.995319 0-34.123506 32.758566-53.573904 53.062051-17.061753 17.061753-26.275099 36.512151-49.137848 39.583267l-17.061753 70.635657a136.494023 136.494023 0 0 0-48.967231 97.081374 66.711454 66.711454 0 0 1 4.436056-52.891434c-17.061753 6.824701-45.896115 17.061753-29.68745 96.910756 12.796315 63.128486-5.289143 135.129083 10.066434 204.741035 4.777291 20.985956 0 40.095119 6.142231 51.185259C218.025998 875.43854 319.202192 1031.724197 582.806274 1023.705173l4.436056-8.872112c-28.151892-6.824701-55.109462-17.061753-111.583864-30.711155-18.597311-4.436056-23.033366-34.123506-40.265736-44.18994-9.383964-5.459761-28.32251-4.094821-37.194622-9.895816s4.265438-21.668426-19.962251-14.331873c-8.530876 2.559263-13.82002-10.919522-20.132868-17.061753s0-23.715837-23.374601-24.739541-18.426693-29.68745-19.791634-44.701793c-12.113845 1.535558-1.194323-1.535558-13.308167 4.436056a63.640338 63.640338 0 0 1-23.886454-31.734861c-10.237052-48.967231-10.578287-21.497809-15.014343-32.41733a322.296512 322.296512 0 0 0-19.27978-42.14253l26.786952 8.872112h4.436055l4.436056-13.308167-26.616334-8.701494h31.223007c-7.677789 13.990637 2.04741 5.289143-13.478784 8.872111v13.308167l22.350896-8.872111v-13.308167c-20.644721-10.237052-28.663745-13.308167-49.137848-22.009662l9.042729 8.872112v4.436056h-49.137849c-22.009661-14.843725-13.990637-31.73486-17.91484-53.062052 17.061753 0 9.213347 6.654084 17.061753-13.13755l-17.061753 8.872112 13.308167-33.952888-13.308167 13.137549c-29.175597-38.730179-16.208665-97.763844-11.943227-152.020218a180.683963 180.683963 0 0 1 37.706474-102.370517c8.872111-10.066434 5.118526-25.251394 5.459761-37.194621l31.223007-26.445717h17.914841c7.677789 17.061753 4.777291 5.459761 0 22.009661l8.872111 4.436056c7.165936-8.701494 6.142231-5.971614 8.872112-22.009662-10.066434-10.578287-6.995319-9.895817-26.616335-13.308167a119.43227 119.43227 0 0 1 111.583864-57.327489l4.436056-13.308168-17.914841 9.042729-4.436055-13.137549A109.536454 109.536454 0 0 1 426.691236 198.598804c6.312849 0 6.995319-17.061753 12.796314-19.450399 161.5748-60.569223 309.32958 9.383964 371.093125 147.413545a324.173305 324.173305 0 0 1 8.189642 34.123506c17.061753 56.986255-7.165936 121.479681 9.725199 155.603186-7.848406 36.000299-36.682769 13.82002-40.265737 30.881773-8.530876 41.289442-14.843725 59.716135-40.777589 78.825298A196.380776 196.380776 0 0 1 716.741035 648.34661a84.285059 84.285059 0 0 0 22.350896-39.753885c-106.29472 111.583864-262.580377 63.981573-290.049799-105.953485A101.176195 101.176195 0 0 1 484.189343 409.482069c92.986553-87.526792 150.143425-52.379581 205.76474-20.474103l-8.872112-30.711155c-32.929183-24.398307-17.061753-19.791633-9.042729-57.32749v-4.436056l-17.91484-13.13755c2.559263 10.066434 1.023705 5.289143 9.042729 17.061753-4.436056 16.038048 0 9.042729-8.872112 17.061753-15.014343 9.725199-23.715837 7.336554-44.701793 4.436056l4.436056-13.308167-13.308167-13.308168c0 11.772609-4.094821 2.72988 0 17.061753-126.086354 9.895817-218.049202 80.019621-178.636553 260.191732a220.608465 220.608465 0 0 0 8.872112 44.18994l-8.872112 8.701494-4.436055-26.445717h-13.478785l-4.436056 13.308167c-12.625697-25.763247-0.853088 10.748904 40.265737 52.891434a149.290338 149.290338 0 0 0 12.796315 12.625697c47.772908 34.123506 113.290039 81.384561 201.328684 49.137848h9.042729v-4.436055l-102.370518-13.308168-4.436056-8.701494c106.806573 24.739542 176.930377-8.530876 236.646513-48.455378 13.13755-17.061753 11.431374-24.057072 22.180279-9.042729 19.279781-17.061753 3.924203-26.786952 13.478784-44.019322 6.483466-11.772609 32.587948-17.061753 44.701793-35.317829l40.095119-136.494023h-17.061753c3.071116-14.331872 22.521514-34.123506-4.436055-48.455378-2.559263-1.535558 9.042729-1.36494 8.872111-4.265438a145.536752 145.536752 0 0 0-22.180279-66.370219c33.099801 21.668426 36.341534 68.247012 53.573904 105.782868v8.872111h4.436056V375.358563zM453.30757 595.455176L443.752988 569.009459l62.446016 57.327489z m-307.111552-383.718823l-23.203984-4.436055v39.753884c16.720518-10.578287 18.938546-10.407669 22.350897-35.317829z m574.981072 176.418525a57.498107 57.498107 0 0 0-17.061753 44.18994l13.478785 8.701494a37.877091 37.877091 0 0 0 4.436056-52.891434z m147.242928 167.717031c26.275099-11.601992 54.597609-58.00996 35.829681-97.081374l-35.829681 96.910756z m-174.02988-79.507769c-15.696813 11.772609-19.791633 13.308167-22.350896 39.753885l13.308167 8.872111 17.914841-8.872111a60.227988 60.227988 0 0 0 4.436056-48.455379c-8.360259 13.478785-2.559263 20.644721-13.308168 8.701494z m-67.052689 79.507769c15.86743-10.919522 11.943227-14.843725 17.914841-22.180279V528.914339a292.097209 292.097209 0 0 1-62.446016 0c-13.13755-13.990637-13.308167-29.346215-31.223007-39.583266 17.061753 35.147211 3.241733 38.218326 31.223007 61.763545a158.162449 158.162449 0 0 0 40.09512 4.436056c1.535558 0-6.824701-1.023705 4.436055 0z m-419.548503-35.317829h-13.478785l-8.872111 8.701494c9.554582 10.237052 5.459761 7.165936 13.308167-4.436055l13.478785 22.180278 4.436056-17.061752-8.872112-8.701494z m17.061753 57.32749l4.436056-8.872111c-10.066434-8.701494 0-3.582968-13.308167 0l-13.308168-17.061753 4.436056 17.061753v8.872111h17.061753z" fill="#CE0C48" p-id="12920"></path></svg>