<?xml version="1.0" standalone="no"?><!DOCTYPE svg PUBLIC "-//W3C//DTD SVG 1.1//EN" "http://www.w3.org/Graphics/SVG/1.1/DTD/svg11.dtd"><svg t="1712581566343" class="icon" viewBox="0 0 1024 1024" version="1.1" xmlns="http://www.w3.org/2000/svg" p-id="18592" xmlns:xlink="http://www.w3.org/1999/xlink" width="16" height="16"><path d="M923.400119 349.271771c-4.783543 2.852571-118.798629 63.049143-118.798629 196.5056 5.368686 152.210286 143.886629 205.589943 146.256457 205.589943-2.369829 2.852571-20.918857 72.704-75.819885 145.949257C831.488805 960.394971 783.09749 1024 709.662062 1024c-69.866057 0-94.939429-42.042514-175.542857-42.042514-86.571886 0-111.060114 42.042514-177.342172 42.042514-73.435429 0-125.381486-66.998857-171.329828-129.506743-59.684571-81.773714-110.445714-210.139429-112.2304-333.385143-1.199543-65.301943 11.951543-129.492114 45.3632-184.027428 47.162514-76.112457 131.364571-127.780571 223.290514-129.492115 70.436571-2.2528 133.134629 46.006857 176.128 46.006858 41.194057 0 118.228114-46.006857 205.370514-46.006858 37.610057 0.043886 137.918171 10.825143 200.031086 101.6832z m-411.355429-114.717257c-12.551314-59.640686 22.074514-119.281371 54.315886-157.315657C607.554633 31.232 672.622519 0 728.737719 0c3.584 59.640686-19.119543 118.125714-59.684572 160.724114-36.425143 46.006857-99.108571 80.647314-157.008457 73.8304z" fill="#1296db" p-id="18593"></path></svg>