<?xml version="1.0" standalone="no"?><!DOCTYPE svg PUBLIC "-//W3C//DTD SVG 1.1//EN" "http://www.w3.org/Graphics/SVG/1.1/DTD/svg11.dtd"><svg t="1712580910536" class="icon" viewBox="0 0 1024 1024" version="1.1" xmlns="http://www.w3.org/2000/svg" p-id="14109" xmlns:xlink="http://www.w3.org/1999/xlink" width="16" height="16"><path d="M879.776 733.952a257.568 257.568 0 0 0-57.056-6.816c-33.44 0-63.84 5.824-86.272 15.136a7.616 7.616 0 0 0-4.224 6.752c0 1.088 0.224 2.176 0.672 3.072 2.624 7.68-1.728 15.968-23.424 20.8-32.192 7.04-52.512 40.288-64.128 51.264-13.664 12.96-52.192 20.928-46.4 13.152 4.544-5.984 21.888-24.832 32.416-45.184 9.472-18.176 17.888-23.36 29.44-40.736 3.424-5.088 16.576-22.976 20.416-37.12 4.288-13.824 2.848-31.168 4.512-38.304 2.368-10.304 12.064-32.608 12.8-45.28 0.416-7.072-29.792 10.24-44.128 10.24-14.336 0-28.32-8.608-41.12-9.184-15.84-0.768-26.048 12.192-40.416 9.888-8.16-1.28-15.104-8.48-29.376-8.992-20.384-0.768-45.312 11.296-92.064 9.824-46.016-1.504-88.512-58.176-94.304-67.168-6.816-10.528-15.136-10.528-24.16-2.208-9.056 8.224-20.256 1.728-23.392-3.808-6.048-10.56-22.176-41.376-47.168-47.872-34.56-8.96-52.064 19.136-49.792 41.44 2.304 22.688 16.992 29.056 23.808 41.12 6.752 12.032 10.24 19.84 22.976 25.184 9.088 3.776 12.448 9.344 9.76 16.768-2.368 6.464-11.776 7.968-18.016 8.256a47.904 47.904 0 0 1-29.12-7.232c-7.808-5.024-14.208-11.936-20.992-23.68-7.936-12.992-20.384-18.624-34.88-18.624-6.912 0-13.408 1.824-19.136 4.736a170.624 170.624 0 0 1-78.912 18.848l-32.896 0.032c63.008 186.784 239.744 321.248 447.904 321.248 166.24 0 312.448-85.76 396.672-215.552" fill="#FFFFFF" p-id="14110"></path><path d="M879.776 734.016a253.824 253.824 0 0 0-57.056-6.848c-33.44 0-63.84 5.824-86.272 15.136a7.584 7.584 0 0 0-4.224 6.752c0 1.056 0.224 2.176 0.672 3.04 2.624 7.712-1.728 16.032-23.424 20.832-32.192 7.072-52.512 40.256-64.128 51.232-13.664 12.992-52.192 20.96-46.4 13.216 4.544-6.048 21.888-24.896 32.416-45.248 9.472-18.144 17.888-23.36 29.44-40.704 3.424-5.088 16.576-23.008 20.416-37.12 4.288-13.856 2.848-31.168 4.512-38.304 2.368-10.304 12.064-32.608 12.8-45.248 0.416-7.136-29.792 10.176-44.128 10.176-14.336 0-28.32-8.576-41.12-9.152-15.84-0.8-26.048 12.192-40.416 9.888-8.16-1.28-15.104-8.48-29.376-9.024-20.384-0.736-45.312 11.328-92.064 9.824-46.016-1.504-88.512-58.112-94.304-67.104-6.816-10.592-15.136-10.592-24.16-2.272-9.056 8.256-20.256 1.76-23.392-3.776-6.048-10.592-22.176-41.408-47.168-47.904-34.56-8.96-52.064 19.136-49.792 41.472 2.304 22.656 16.992 29.024 23.808 41.088 6.752 12.032 10.24 19.872 22.976 25.216 9.088 3.744 12.448 9.344 9.76 16.768-2.368 6.464-11.776 7.968-18.016 8.256a47.68 47.68 0 0 1-29.12-7.296c-7.808-4.928-14.208-11.872-20.992-23.648-7.936-12.96-20.384-18.624-34.88-18.624-6.912 0-13.408 1.856-19.136 4.736-22.72 11.872-49.792 18.88-78.912 18.88H35.2c-16-47.392-24.64-98.176-24.64-150.944C10.56 216.448 222.112 5.024 483.104 5.024c260.928 0 472.512 211.424 472.512 472.288 0 94.656-27.872 182.72-75.84 256.704" fill="#000000" p-id="14111"></path><path d="M587.136 690.688c2.432 2.336 6.624 10.304 1.504 20.48-2.88 5.344-5.984 9.088-11.488 13.504-6.688 5.344-19.648 11.52-37.44 0.16-9.6-6.048-10.208-8.096-23.424-6.368-9.44 1.216-13.184-8.32-9.824-16.256 3.424-7.904 17.344-14.304 34.72-4.128 7.84 4.576 20 14.304 30.624 5.664a79.04 79.04 0 0 0 13.216-12.96 1.536 1.536 0 0 1 1.12-0.448c0.384 0 0.736 0.128 0.992 0.352" fill="#000000" p-id="14112"></path><path d="M446.304 229.92c-54.56 3.936-60.256 9.824-70.464 20.672-14.4 15.392-33.408-19.872-33.408-19.872-11.424-2.4-25.216-20.768-17.76-37.888 7.36-16.96 20.928-11.904 25.152-6.624 5.152 6.432 16.192 16.96 30.528 16.576 14.336-0.384 30.848-3.392 53.92-3.392 23.36 0 39.04 8.704 39.904 16.224 0.8 6.368-1.888 12.384-27.84 14.304m57.312-90.144h-0.256c-0.832 0-1.504-0.64-1.504-1.408 0-0.576 0.352-1.088 0.864-1.312 10.592-5.568 26.368-10.048 44.416-11.84a150.08 150.08 0 0 1 15.808-0.896h2.72c30.304 0.704 54.528 12.736 54.176 26.88-0.384 14.144-25.184 25.056-55.52 24.416a107.36 107.36 0 0 1-26.88-3.968 2.016 2.016 0 0 1-1.6-1.984c0-0.928 0.64-1.728 1.632-1.984 18.88-4.352 31.616-11.52 30.72-18.272-1.216-8.928-25.888-13.792-55.2-10.848-3.2 0.32-6.336 0.736-9.376 1.216m246.08 211.872c-4.672 15.68-11.296 35.744-40.864 50.912-4.32 2.208-5.92-1.408-3.968-4.8 11.2-19.008 13.152-23.744 16.416-31.2 4.512-10.976 6.944-26.56-2.112-59.008-17.76-63.904-54.88-149.376-81.792-177.056-26.016-26.752-73.12-34.304-115.744-23.36-15.68 4-46.368 19.936-103.264 7.136-98.464-22.176-113.056 27.104-118.688 48.576-5.696 21.472-19.264 82.496-19.264 82.496-4.48 24.896-10.432 68.096 142.496 97.248 71.232 13.536 74.816 31.968 78.016 45.184 5.664 23.712 14.72 37.28 24.864 44.064 10.176 6.784 0 12.416-11.296 13.536-30.304 3.168-142.464-28.992-208.832-66.656-54.272-33.152-55.168-62.976-42.752-88.32-81.984-8.864-143.52 7.68-154.656 46.496-19.168 66.56 146.432 180.288 335.04 237.376 197.856 59.872 401.376 18.048 424-106.272 10.272-56.48-37.312-98.272-117.6-116.352" fill="#E93442" p-id="14113"></path></svg>