<?xml version="1.0" standalone="no"?><!DOCTYPE svg PUBLIC "-//W3C//DTD SVG 1.1//EN" "http://www.w3.org/Graphics/SVG/1.1/DTD/svg11.dtd"><svg t="1712580703637" class="icon" viewBox="0 0 1028 1024" version="1.1" xmlns="http://www.w3.org/2000/svg" p-id="11891" xmlns:xlink="http://www.w3.org/1999/xlink" width="16.0625" height="16"><path d="M0.00373 512.083923a105.731164 98.916657 0 1 0 211.462328 0 105.731164 98.916657 0 1 0-211.462328 0Z" fill="#FF6309" p-id="11892"></path><path d="M739.719049 925.075884a105.731164 98.920387 0 1 0 211.462328 0 105.731164 98.920387 0 1 0-211.462328 0Z" fill="#FFB515" p-id="11893"></path><path d="M598.86725 265.17273c128.453648 0 235.035226 92.258805 252.681331 211.868885H1028.293102c-8.026721-93.985743-48.313252-181.585917-115.663858-250.674651-43.136166 21.249178-96.175188 21.655736-141.232248-3.498636-45.090628-25.184211-71.2558-69.849632-73.762285-116.656008a448.440826 448.440826 0 0 0-98.763731-10.958414c-64.489781 0-126.808767 13.617825-183.49189 39.436116l88.484157 148.244439a261.416731 261.416731 0 0 1 95.004003-17.761731z" fill="#FF6309" p-id="11894"></path><path d="M851.559771 547.014333c-17.605076 119.65484-124.201574 211.969593-252.692521 211.969593-33.576461 0-65.653506-6.318432-95.037572-17.784111l-88.499077 148.255628c56.668204 25.833211 119.013299 39.458496 183.529189 39.458496 33.699547 0 66.817232-3.763458 98.842059-10.980793 2.461727-46.858596 28.638088-91.602344 73.758556-116.797744 45.071979-25.176751 98.13338-24.770193 141.277006-3.476257 67.298387-69.096194 107.54016-156.692637 115.544502-250.644812h-176.722142z" fill="#C90016" p-id="11895"></path><path d="M343.612296 512.080193c0-78.663359 38.227633-148.844951 97.644764-194.088505l-88.461778-148.22206a434.18519 434.18519 0 0 0-58.659964 47.563545C242.938861 266.85118 206.225564 326.64503 186.020755 391.899439c40.704279 25.504981 67.656457 69.775034 67.656457 120.180754 0 50.39826-26.955908 94.679503-67.660187 120.173294 20.204809 65.258138 56.918106 125.044529 108.114563 174.569995a434.282168 434.282168 0 0 0 58.611476 47.548625l88.476697-148.233249c-59.402212-45.239824-97.607466-115.421416-97.607465-194.058665z" fill="#FFB515" p-id="11896"></path><path d="M739.636991 98.924116a105.727434 98.924116 0 1 0 211.454868 0 105.727434 98.924116 0 1 0-211.454868 0Z" fill="#C90016" p-id="11897"></path></svg>